<svg width="97"
        height="97"
        viewBox="0 0 97 97"
        fill="none"
        xmlns="http://www.w3.org/2000/svg">
    <path
            opacity="0.975"
            fill-rule="evenodd"
            clip-rule="evenodd"
            d="M48.0856 1.64753C48.1672 1.50555 48.3202 1.39502 48.4726 1.45485C48.5385 1.4807 48.5991 1.52032 48.6543 1.57369C48.6786 1.59716 48.698 1.62506 48.7149 1.65427C54.6345 11.856 60.518 22.0811 66.3656 32.3293C66.5535 32.6586 66.3208 33.069 65.9417 33.0765C54.2518 33.3064 42.5622 33.3065 30.8724 33.0766C30.4925 33.0691 30.2598 32.6571 30.4492 32.3278C36.333 22.0979 42.2118 11.8712 48.0856 1.64753Z"
            fill="#C02ED5" />
    <path
            opacity="0.966"
            fill-rule="evenodd"
            clip-rule="evenodd"
            d="M41.1237 3.93148C41.1781 3.89996 41.2383 3.87511 41.301 3.87947C41.3259 3.8812 41.3497 3.88535 41.3725 3.89193C41.543 3.94128 41.5307 4.16788 41.4423 4.32189C36.1752 13.5031 30.8719 22.6608 25.5327 31.7953C25.398 32.0258 25.1059 32.1098 24.8696 31.9857C19.6746 29.2573 14.5565 26.3496 9.51534 23.2628C9.19444 23.0662 9.19876 22.5992 9.52277 22.4078C20.0317 16.2015 30.5653 10.0427 41.1237 3.93148Z"
            fill="#7C3AED" />
    <path
            opacity="0.967"
            fill-rule="evenodd"
            clip-rule="evenodd"
            d="M56.0886 5.42736C55.8422 4.98734 56.3282 4.502 56.7679 4.74902C67.0203 10.5091 77.195 16.3951 87.2925 22.407C87.6151 22.5991 87.6185 23.0648 87.2983 23.2608C82.2553 26.3489 77.1354 29.2576 71.9385 31.987C71.7031 32.1106 71.4124 32.0278 71.2769 31.7991C66.1066 23.0664 61.0438 14.2759 56.0886 5.42736Z"
            fill="#7C3AED" />
    <path
            opacity="0.964"
            fill-rule="evenodd"
            clip-rule="evenodd"
            d="M6.34482 27.6387C6.34568 27.2618 6.74745 27.0215 7.07947 27.1999C12.3082 30.0102 17.4239 32.9842 22.4267 36.122C22.6524 36.2636 22.7269 36.5573 22.5964 36.7895C17.6212 45.6444 12.5412 54.4348 7.35649 63.1608C7.09807 63.5958 6.43209 63.4151 6.42854 62.9092C6.34591 51.1525 6.318 39.3956 6.34482 27.6387Z"
            fill="#7C3AED" />
    <path
            opacity="0.964"
            fill-rule="evenodd"
            clip-rule="evenodd"
            d="M89.3601 27.2457C89.686 27.0492 90.1037 27.2736 90.1184 27.6539C90.3486 33.6281 90.4639 39.6613 90.4639 45.7529C90.4352 51.4688 90.4067 57.1847 90.3781 62.9006C90.3756 63.4071 89.7085 63.5889 89.4498 63.1534C84.2473 54.3975 79.1505 45.5769 74.159 36.6912C74.0531 36.5026 74.0789 36.2654 74.236 36.1168C74.6081 35.7647 75.0285 35.4719 75.4971 35.2383C80.1846 32.6558 84.8056 29.9917 89.3601 27.2457Z"
            fill="#7C3AED" />
    <path
            opacity="0.985"
            fill-rule="evenodd"
            clip-rule="evenodd"
            d="M30.4615 38.7231C30.2678 38.3932 30.5012 37.9768 30.8837 37.9702C42.5353 37.7682 54.2158 37.738 65.9254 37.8799C66.3082 37.8846 66.5437 38.3003 66.3511 38.6312C60.492 48.6971 54.6547 58.7769 48.8392 68.8708C48.6467 69.2049 48.1644 69.2047 47.9722 68.8703C42.1741 58.7823 36.3372 48.7332 30.4615 38.7231Z"
            fill="#7C3AED" />
    <path
            opacity="0.98"
            fill-rule="evenodd"
            clip-rule="evenodd"
            d="M25.6676 40.4082C25.7809 40.209 26.0262 40.1006 26.2083 40.2399C26.3377 40.3389 26.4427 40.4715 26.5234 40.6377C32.303 50.7793 38.1282 60.8914 43.9992 70.9739C44.191 71.3033 43.9585 71.7176 43.5774 71.7251C31.8919 71.9549 20.2065 71.9548 8.52107 71.7251C8.14021 71.7176 7.90766 71.3038 8.09894 70.9744C14.004 60.8049 19.8602 50.6161 25.6676 40.4082Z"
            fill="#C02ED5" />
    <path
            opacity="0.98"
            fill-rule="evenodd"
            clip-rule="evenodd"
            d="M70.3785 40.4082C70.4919 40.209 70.7372 40.1006 70.9192 40.2399C71.0486 40.3389 71.1537 40.4715 71.2344 40.6377C77.0139 50.7793 82.8392 60.8914 88.7101 70.9739C88.9019 71.3033 88.6694 71.7176 88.2883 71.7251C76.6028 71.9549 64.9175 71.9548 53.232 71.7251C52.8511 71.7176 52.6186 71.3038 52.8099 70.9744C58.7149 60.8049 64.5711 50.6161 70.3785 40.4082Z"
            fill="#C02ED5" />
    <path
            opacity="0.972"
            fill-rule="evenodd"
            clip-rule="evenodd"
            d="M14.9031 77.5341C14.4657 77.2797 14.6399 76.612 15.1457 76.6038C25.2811 76.4406 35.4439 76.3866 45.6347 76.4416C45.9097 76.443 46.1318 76.6664 46.1318 76.9415C46.1318 82.806 46.1318 88.6706 46.1318 94.5351C46.1318 94.9174 45.7202 95.1583 45.387 94.9708C35.1907 89.2359 25.0294 83.4237 14.9031 77.5341Z"
            fill="#7C3AED" />
    <path
            opacity="0.972"
            fill-rule="evenodd"
            clip-rule="evenodd"
            d="M50.6787 76.9429C50.6787 76.6673 50.9017 76.4437 51.1773 76.4429C61.344 76.4153 71.5105 76.4424 81.6769 76.5242C82.1819 76.5283 82.3624 77.1924 81.9288 77.4513C71.8502 83.4671 61.6806 89.3102 51.42 94.9804C51.0869 95.1644 50.6787 94.9234 50.6787 94.5428C50.6787 88.6762 50.6787 82.8095 50.6787 76.9429Z"
            fill="#7C3AED" />
</svg>
